<?xml version="1.0" encoding="UTF-8"?>
<svg id="Layer_2" data-name="Layer 2" xmlns="http://www.w3.org/2000/svg" viewBox="0 0 551.54 829">
  <defs>
    <style>
      .cls-1 {
        fill: #231f20;
        stroke: #231f20;
        stroke-linecap: round;
        stroke-miterlimit: 10;
        stroke-width: 2px;
      }
    </style>
  </defs>
  <g id="Layer_1-2" data-name="Layer 1">
    <path class="cls-1" d="M301.95,33.31L123.81,211.46c-3.55,3.55-8.36,5.54-13.38,5.54H19.97c-16.86,0-25.31-20.39-13.38-32.31L184.72,6.54c3.55-3.55,8.36-5.54,13.38-5.54h90.46c16.86,0,25.31,20.39,13.38,32.31Z"/>
    <path class="cls-1" d="M301.95,501.31l-178.14,178.14c-3.55,3.55-8.36,5.54-13.38,5.54H19.97c-16.86,0-25.31-20.39-13.38-32.31l178.14-178.14c3.55-3.55,8.36-5.54,13.38-5.54h90.46c16.86,0,25.31,20.39,13.38,32.31Z"/>
    <path class="cls-1" d="M544.95,267.31l-170.3,170.3c-7.39,7.39-19.38,7.39-26.77,0l-45.23-45.23c-7.39-7.39-7.39-19.38,0-26.77l125.07-125.07c3.55-3.55,8.36-5.54,13.38-5.54h90.46c16.86,0,25.31,20.39,13.38,32.31Z"/>
    <path class="cls-1" d="M288.57,451h-90.46c-5.02,0-9.83-1.99-13.38-5.54L6.58,267.31c-11.92-11.92-3.48-32.31,13.38-32.31h90.46c5.02,0,9.83,1.99,13.38,5.54l178.14,178.14c11.92,11.92,3.48,32.31-13.38,32.31Z"/>
  </g>
</svg>